<?xml version="1.0" ?><!-- Uploaded to: SVG Repo, www.svgrepo.com, Generator: SVG Repo Mixer Tools -->
<svg width="800px" height="800px" viewBox="0 0 150 150" id="ART" xmlns="http://www.w3.org/2000/svg"><defs><style>.cls-1{fill:none;stroke-linecap:round;stroke-linejoin:round;}.cls-1,.cls-2,.cls-4{stroke:#000000;stroke-width:4px;}.cls-2{fill:#94bc19;}.cls-2,.cls-4{stroke-miterlimit:10;}.cls-3{fill:#ffffff;}.cls-4{fill:#1baf33;}</style></defs><title/><path class="cls-1" d="M76.47,44.69S70.43,16.17,82.26,5"/><path class="cls-2" d="M112.7,112.3C112.7,145.19,77,145,74.92,145s-37.78.19-37.78-32.7c0-.31,0-.61,0-.92C37.48,92.55,47.88,83.93,52,74.11,56.94,62.33,53.3,37.75,73.05,37l1,0c.31,0,.61,0,.92,0s.6,0,.92,0l1,0c19.75.76,16.11,25.35,21.05,37.13,4.11,9.81,14.52,18.44,14.83,37.27C112.69,111.7,112.7,112,112.7,112.3Z"/><path class="cls-3" d="M45.29,102.69c2.59-7.56,8.84-13.43,11.23-11.25s-1.37,5.49-4.11,15.71-.43,14.55-3.16,15.45S42.21,111.7,45.29,102.69Z"/><path class="cls-3" d="M45.29,102.69c2.59-7.56,8.84-13.43,11.23-11.25s-1.37,5.49-4.11,15.71-.43,14.55-3.16,15.45S42.21,111.7,45.29,102.69Z"/><path class="cls-4" d="M78.81,26.22c-1.55-12.87,20.54-18,34-9.78C105.12,28.33,85.52,31.88,78.81,26.22Z" data-name="&lt;Path&gt;" id="_Path_"/></svg>